<?xml version="1.0" standalone="no"?>
<!DOCTYPE svg PUBLIC "-//W3C//DTD SVG 20010904//EN"
 "http://www.w3.org/TR/2001/REC-SVG-20010904/DTD/svg10.dtd">
<svg version="1.0" xmlns="http://www.w3.org/2000/svg"
 width="700.000000pt" height="700.000000pt" viewBox="0 0 700.000000 700.000000"
 preserveAspectRatio="xMidYMid meet">
<metadata>
Created by potrace 1.11, written by Peter Selinger 2001-2013
</metadata>
<g transform="translate(0.000000,700.000000) scale(0.100000,-0.100000)"
fill="#000000" stroke="none">
<path d="M3270 6978 c-315 -57 -595 -222 -799 -472 -140 -171 -244 -397 -276
-596 -3 -19 -9 -60 -14 -90 -5 -30 -9 -741 -9 -1580 0 -1591 1 -1630 42 -1790
76 -292 222 -514 477 -725 106 -88 301 -186 454 -227 134 -36 153 -39 330 -43
226 -6 363 22 579 117 177 77 402 257 499 398 17 25 34 47 38 50 16 12 112
192 141 265 48 125 71 218 86 344 4 36 7 766 7 1621 0 1187 -3 1572 -12 1626
-13 71 -56 232 -72 269 -103 228 -178 341 -317 478 -152 148 -381 280 -569
328 -188 48 -411 58 -585 27z m400 -232 c174 -34 295 -82 434 -174 115 -76
249 -213 315 -322 66 -110 135 -284 146 -367 2 -21 8 -58 13 -83 4 -25 7 -745
6 -1600 -1 -1517 -2 -1557 -22 -1645 -99 -448 -451 -781 -897 -852 -63 -10
-264 -10 -330 0 -450 70 -808 415 -901 868 -16 77 -17 208 -19 1619 -1 1162 2
1557 11 1625 65 480 426 849 909 929 73 12 274 13 335 2z"/>
<path d="M1633 3604 c-65 -33 -65 -32 -60 -562 2 -262 6 -486 9 -497 3 -11 9
-42 12 -70 26 -199 114 -449 229 -650 179 -315 446 -575 767 -747 208 -112
454 -190 665 -214 39 -4 79 -8 90 -10 11 -1 23 -3 28 -3 4 -1 7 -138 7 -305
l0 -305 -308 1 c-344 0 -367 -4 -397 -63 -34 -66 -14 -132 52 -164 45 -22
1495 -23 1548 -1 59 25 85 116 49 172 -35 53 -49 55 -389 55 l-315 1 0 304 c0
263 2 304 15 305 8 1 18 2 23 3 4 1 41 6 82 10 402 43 819 248 1125 554 126
125 152 159 308 397 62 93 159 335 197 490 52 209 58 289 59 768 2 501 2 500
-66 532 -62 30 -140 0 -164 -62 -4 -12 -9 -215 -10 -450 -1 -290 -6 -462 -15
-533 -64 -492 -346 -937 -763 -1204 -73 -47 -232 -127 -326 -165 -73 -29 -270
-78 -345 -86 -36 -4 -74 -9 -85 -11 -25 -5 -258 -5 -305 0 -279 30 -509 107
-735 246 -334 205 -599 541 -714 900 -57 180 -60 194 -80 375 -5 39 -9 259
-10 489 -2 446 -4 464 -51 493 -34 22 -92 25 -127 7z"/>
</g>
</svg>
